<?xml version="1.0" encoding="utf-8"?>
<!-- Generator: Adobe Illustrator 16.0.3, SVG Export Plug-In . SVG Version: 6.00 Build 0)  -->
<!DOCTYPE svg PUBLIC "-//W3C//DTD SVG 1.1//EN" "http://www.w3.org/Graphics/SVG/1.1/DTD/svg11.dtd">
<svg version="1.1" xmlns="http://www.w3.org/2000/svg" xmlns:xlink="http://www.w3.org/1999/xlink" x="0px" y="0px"
	 width="53.333px" height="50.084px" viewBox="-4.583 -4.917 53.333 50.084" enable-background="new -4.583 -4.917 53.333 50.084"
	 xml:space="preserve">
<g id="Layer_1" display="none">
	<polygon display="inline" points="43.833,12.583 43.833,0.083 35.833,0.083 35.833,7.083 31.833,7.083 31.833,0.083 23.833,0.083 
		23.833,7.083 19.833,7.083 19.833,0.083 11.833,0.083 11.833,7.083 7.833,7.083 7.833,0.083 -0.167,0.083 -0.167,12.583 
		5.833,18.083 5.833,38.083 0.333,45.083 15.833,45.083 15.833,32.583 21.833,27.083 27.833,32.583 27.833,45.083 44.333,45.083 
		37.833,38.083 37.833,18.083 	"/>
</g>
<g id="Layer_2" display="none">
	<path display="inline" d="M35.583,18.917V5.25L21.542-2.417l0,0L7.583,5.25v13.667l6,6.334v13.666l-4.916,6.166h9.916V32.917
		l3-3.045l0,0l0,0l3,3.045v12.166h11.25l-6.25-6.166V25.251L35.583,18.917z M14.583,11.917v5l-2,1l-2-1v-5v-5l2-1l2,1V11.917z
		 M23.583,11.917v5l-2.02,0.99l-1.98-0.99v-5v-5l1.98-0.99l2.02,0.99V11.917z M28.583,16.917v-5v-5l2-1l2,1v5v5l-2,1L28.583,16.917z
		"/>
</g>
<g id="Layer_3">
	<path d="M42.037,18.067c-11.805,0-19.953-14.952-19.953-14.952l0,0c0,0-8.15,14.947-19.953,14.947
		c0,12.66-6.581,27.021-6.581,27.021h18.764c0,0,7.77-10,7.77-22l0,0c0,12,7.767,22,7.767,22h18.766
		C48.617,45.083,42.037,30.728,42.037,18.067z M12.583,33.083h-6v-8h6V33.083z M37.583,33.083h-6v-8h6V33.083z"/>
</g>
<g id="Layer_4" display="none">
	<g display="inline">
		<polygon points="22.193,15.083 37.943,15.083 43.13,2.542 34.912,7.397 22.193,-4.739 9.349,7.38 1.006,2.545 6.193,15.083 		"/>
		<polygon points="43.224,45.083 37.583,37.25 37.583,19.083 5.583,19.083 5.583,37.25 0.943,45.083 15.583,45.083 15.583,30 
			21.583,26.75 27.583,30 27.583,45.083 		"/>
	</g>
</g>
</svg>
