<?xml version="1.0" encoding="utf-8"?>
<!-- Generator: Adobe Illustrator 16.0.3, SVG Export Plug-In . SVG Version: 6.00 Build 0)  -->
<!DOCTYPE svg PUBLIC "-//W3C//DTD SVG 1.1//EN" "http://www.w3.org/Graphics/SVG/1.1/DTD/svg11.dtd">
<svg version="1.1" xmlns="http://www.w3.org/2000/svg" xmlns:xlink="http://www.w3.org/1999/xlink" x="0px" y="0px"
	 width="53.333px" height="50.084px" viewBox="0 0 53.333 50.084" enable-background="new 0 0 53.333 50.084" xml:space="preserve">
<g id="Layer_1" display="none">
	<g id="Layer_1_1_" display="inline">
		<polygon points="43.833,12.583 43.833,0.083 35.833,0.083 35.833,7.083 31.833,7.083 31.833,0.083 23.833,0.083 23.833,7.083 
			19.833,7.083 19.833,0.083 11.833,0.083 11.833,7.083 7.833,7.083 7.833,0.083 -0.167,0.083 -0.167,12.583 5.833,18.083 
			5.833,38.083 0.333,45.083 15.833,45.083 15.833,32.583 21.833,27.083 27.833,32.583 27.833,45.083 44.333,45.083 37.833,38.083 
			37.833,18.083 		"/>
	</g>
	<g id="Layer_2" display="inline">
		<path d="M35.583,18.917V5.25L21.542-2.417l0,0L7.583,5.25v13.667l6,6.334v13.666l-4.916,6.166h9.916V32.917l3-3.045l0,0l0,0
			l3,3.045v12.166h11.25l-6.25-6.166V25.251L35.583,18.917z M14.583,11.917v5l-2,1l-2-1v-5v-5l2-1l2,1V11.917z M23.583,11.917v5
			l-2.02,0.99l-1.98-0.99v-5v-5l1.98-0.99l2.02,0.99V11.917z M28.583,16.917v-5v-5l2-1l2,1v5v5l-2,1L28.583,16.917z"/>
	</g>
	<g id="Layer_3" display="inline">
		<path d="M42.038,18.067c-11.806,0-19.954-14.952-19.954-14.952l0,0c0,0-8.15,14.947-19.953,14.947
			c0,12.66-6.581,27.021-6.581,27.021h18.764c0,0,7.77-10,7.77-22l0,0c0,12,7.767,22,7.767,22h18.767
			C48.618,45.083,42.038,30.728,42.038,18.067z M12.583,33.083h-6v-8h6V33.083z M37.583,33.083h-6v-8h6V33.083z"/>
	</g>
	<g id="Layer_4" display="inline">
		<g>
			<polygon points="22.193,15.083 37.943,15.083 43.129,2.542 34.913,7.397 22.193,-4.739 9.349,7.38 1.006,2.545 6.193,15.083 			
				"/>
			<polygon points="43.224,45.083 37.583,37.25 37.583,19.083 5.583,19.083 5.583,37.25 0.943,45.083 15.583,45.083 15.583,30 
				21.583,26.75 27.583,30 27.583,45.083 			"/>
		</g>
	</g>
</g>
<g id="Layer_2_1_" display="none">
	<g display="inline">
		<polygon points="44.872,14.261 44.872,8.689 39.299,8.688 11.974,34.089 6.575,28.686 6.564,32.536 10.842,36.841 10.903,40.091 
			3.615,47.376 3.67,49.895 6.184,49.948 13.472,42.661 16.723,42.724 21.029,47 24.876,46.99 19.475,41.589 		"/>
		<polygon points="24.877,18.896 14.034,8.824 8.46,8.826 8.46,14.397 18.322,25.007 		"/>
		<polygon points="49.717,47.513 42.43,40.228 42.491,36.977 46.768,32.671 46.758,28.822 41.358,34.225 35.054,28.277 
			28.22,35.659 33.856,41.725 28.458,47.126 32.305,47.134 36.61,42.859 39.86,42.798 47.147,50.084 49.661,50.031 		"/>
	</g>
</g>
<g id="Layer_3_1_">
	<g>
		<path d="M27.349,17.037v-5.218h-11.74l0.021-8.632c0,0-8.74,3.411-8.74,11.241c0,7.831,8.74,11.241,8.74,11.241l-0.021-8.632
			H27.349z"/>
		<rect x="17.348" y="8.34" width="5.217" height="1.739"/>
		<polygon points="17.348,18.776 17.348,32.691 17.348,48.345 19.957,50.084 22.564,48.345 22.564,32.691 22.564,18.776 
			19.957,18.776 		"/>
		<path d="M37.699,27.602l0.023,8.633h-11.74v5.218h11.74l-0.023,8.632c0,0,8.74-3.41,8.74-11.241
			C46.439,31.013,37.699,27.602,37.699,27.602z"/>
		<rect x="30.765" y="43.191" width="5.217" height="1.739"/>
		<polygon points="35.982,34.495 35.982,20.58 35.982,4.926 33.373,3.187 30.765,4.926 30.765,20.58 30.765,34.495 33.373,34.495 		
			"/>
	</g>
</g>
</svg>
